<?xml version="1.0" encoding="utf-8"?>
<!-- Generator: Adobe Illustrator 17.0.0, SVG Export Plug-In . SVG Version: 6.00 Build 0)  -->
<!DOCTYPE svg PUBLIC "-//W3C//DTD SVG 1.1//EN" "http://www.w3.org/Graphics/SVG/1.1/DTD/svg11.dtd">
<svg version="1.1" id="Layer_1" xmlns="http://www.w3.org/2000/svg" xmlns:xlink="http://www.w3.org/1999/xlink" x="0px" y="0px"
	 width="130px" height="50px" viewBox="0 0 130 50" enable-background="new 0 0 130 50" xml:space="preserve">
<path fill="#F15D29" d="M26.339,9.355c0,0.107-0.07,0.222-0.209,0.348c-0.139,0.126-0.321,0.253-0.542,0.381
	c-0.222,0.129-0.472,0.255-0.751,0.377c-0.28,0.123-0.559,0.235-0.838,0.339c-0.28,0.103-0.545,0.194-0.795,0.273
	c-0.25,0.078-0.458,0.137-0.621,0.174c-0.303,0.069-0.702,0.131-1.197,0.184s-1.011,0.1-1.546,0.137
	c-0.536,0.038-1.06,0.067-1.573,0.089c-0.513,0.022-0.944,0.032-1.292,0.032c-0.139,0-0.332-0.013-0.576-0.038
	c-0.245-0.024-0.495-0.056-0.751-0.095c-0.256-0.038-0.497-0.08-0.724-0.127s-0.393-0.096-0.499-0.146
	c0.105,0.239,0.198,0.479,0.279,0.72c0.081,0.241,0.122,0.492,0.122,0.748c0,0.113-0.027,0.251-0.078,0.414
	c-0.052,0.163-0.122,0.329-0.209,0.495c-0.087,0.167-0.184,0.326-0.288,0.48c-0.105,0.154-0.216,0.281-0.331,0.381
	c-0.303,0.276-0.615,0.527-0.934,0.753c-0.321,0.226-0.681,0.434-1.083,0.626c-0.402,0.191-0.853,0.372-1.353,0.541
	c-0.501,0.17-1.077,0.333-1.729,0.49c-0.699,0.163-1.401,0.278-2.105,0.343c-0.704,0.066-1.435,0.1-2.192,0.1
	c-0.478,0-0.903-0.076-1.275-0.226c-0.373-0.15-0.688-0.353-0.944-0.607s-0.451-0.547-0.585-0.88
	c-0.134-0.332-0.201-0.681-0.201-1.046c0-0.095,0.015-0.21,0.043-0.348c0.029-0.139,0.07-0.279,0.122-0.423
	C1.736,13.7,1.79,13.562,1.85,13.43c0.058-0.132,0.116-0.245,0.174-0.339c0.163-0.263,0.395-0.565,0.699-0.903
	c0.303-0.339,0.658-0.686,1.065-1.041c0.407-0.354,0.862-0.703,1.363-1.046c0.501-0.342,1.024-0.648,1.573-0.917
	c0.547-0.269,1.118-0.486,1.712-0.65c0.593-0.163,1.187-0.245,1.781-0.245c0.198,0,0.358,0.016,0.48,0.047
	c0.122,0.031,0.227,0.072,0.315,0.123c0.087,0.05,0.166,0.103,0.236,0.16c0.07,0.056,0.151,0.113,0.245,0.17
	c0.035,0.031,0.087,0.047,0.157,0.047c0.093,0,0.209-0.013,0.349-0.038c0.139-0.024,0.296-0.038,0.472-0.038
	c0.221,0,0.495,0.077,0.822,0.231c0.325,0.154,0.667,0.324,1.022,0.508c0.356,0.185,0.71,0.354,1.065,0.508
	c0.356,0.154,0.673,0.231,0.952,0.231c0.315,0,0.652-0.003,1.014-0.009c0.36-0.006,0.728-0.018,1.101-0.032
	c0.372-0.016,0.739-0.036,1.101-0.061c0.36-0.024,0.693-0.054,0.996-0.085c0.081-0.013,0.273-0.041,0.576-0.085
	c0.303-0.044,0.656-0.096,1.057-0.155c0.402-0.06,0.826-0.124,1.275-0.193c0.447-0.069,0.865-0.133,1.249-0.193
	c0.385-0.06,0.701-0.108,0.952-0.146c0.25-0.038,0.387-0.056,0.41-0.056c0.071,0,0.134,0.009,0.192,0.028
	C26.31,9.271,26.339,9.306,26.339,9.355z M12.713,10.863c-0.07-0.126-0.207-0.249-0.41-0.367c-0.205-0.119-0.437-0.226-0.699-0.32
	c-0.263-0.095-0.539-0.172-0.83-0.231c-0.292-0.06-0.565-0.09-0.822-0.09c-0.209,0-0.414,0.019-0.611,0.057
	C9.144,9.95,8.949,9.997,8.757,10.058c-0.192,0.06-0.375,0.126-0.55,0.198c-0.174,0.072-0.338,0.139-0.489,0.203
	c-0.454,0.208-0.888,0.498-1.302,0.87c-0.414,0.374-0.774,0.776-1.083,1.206c-0.308,0.43-0.557,0.858-0.743,1.285
	c-0.186,0.427-0.279,0.797-0.279,1.112c0,0.139,0.043,0.272,0.131,0.4c0.087,0.129,0.213,0.241,0.375,0.339
	c0.163,0.097,0.356,0.176,0.576,0.235c0.221,0.06,0.466,0.089,0.733,0.089c0.699,0,1.345-0.067,1.939-0.203
	c0.594-0.135,1.132-0.32,1.616-0.556c0.484-0.235,0.911-0.516,1.284-0.843c0.372-0.326,0.687-0.68,0.944-1.059
	c0.256-0.38,0.451-0.779,0.585-1.201C12.629,11.713,12.702,11.289,12.713,10.863z"/>
<path fill="#F15D29" d="M48.402,13.395c0,0.05-0.008,0.09-0.027,0.118c-0.017,0.028-0.041,0.055-0.071,0.08
	c-0.029,0.025-0.067,0.057-0.114,0.095c-0.046,0.038-0.099,0.091-0.157,0.161c-0.058,0.069-0.178,0.149-0.358,0.24
	c-0.181,0.091-0.373,0.179-0.576,0.263c-0.205,0.085-0.402,0.16-0.594,0.226c-0.192,0.066-0.329,0.111-0.41,0.137
	c-0.524,0.15-1.24,0.317-2.149,0.498c-0.908,0.181-1.927,0.361-3.057,0.537c-1.13,0.176-2.335,0.338-3.616,0.485
	c-1.281,0.147-2.557,0.257-3.826,0.325c-0.035,0-0.213,0.02-0.533,0.061c-0.321,0.041-0.673,0.085-1.057,0.132
	c-0.385,0.048-0.746,0.091-1.083,0.132c-0.338,0.041-0.547,0.061-0.629,0.061c-0.268,0-0.523-0.023-0.768-0.071
	c-0.245-0.047-0.458-0.114-0.637-0.203c-0.181-0.088-0.325-0.198-0.436-0.33c-0.112-0.132-0.166-0.279-0.166-0.443
	c0-0.088,0.035-0.163,0.105-0.226c0.071-0.062,0.169-0.116,0.298-0.16c0.128-0.044,0.277-0.085,0.445-0.123
	c0.169-0.038,0.352-0.076,0.55-0.113c0.151-0.031,0.391-0.052,0.716-0.061c0.325-0.009,0.689-0.019,1.091-0.029
	c0.402-0.009,0.822-0.022,1.258-0.038s0.841-0.046,1.213-0.09c0.443-0.05,0.867-0.16,1.275-0.33c0.407-0.17,0.783-0.376,1.127-0.617
	s0.652-0.508,0.925-0.8s0.507-0.585,0.699-0.88c0.192-0.296,0.341-0.58,0.445-0.856c0.105-0.276,0.157-0.524,0.157-0.743
	c0-0.214-0.056-0.402-0.166-0.565c-0.112-0.163-0.259-0.299-0.445-0.41c-0.186-0.109-0.399-0.193-0.637-0.25
	s-0.486-0.085-0.743-0.085c-0.325,0-0.658,0.031-0.996,0.095c-0.338,0.062-0.675,0.147-1.014,0.255s-0.669,0.232-0.996,0.377
	c-0.325,0.144-0.635,0.299-0.925,0.461c-0.501,0.276-1.043,0.617-1.625,1.026c-0.582,0.408-1.155,0.837-1.72,1.286
	c-0.565,0.449-1.095,0.896-1.59,1.341c-0.495,0.446-0.901,0.844-1.213,1.196c-0.023,0.144-0.05,0.316-0.078,0.513
	c-0.029,0.198-0.056,0.41-0.078,0.635c-0.023,0.226-0.043,0.461-0.06,0.706c-0.017,0.245-0.033,0.484-0.043,0.715
	c-0.023,0.427-0.052,0.794-0.087,1.101c-0.035,0.307-0.078,0.589-0.131,0.847c-0.052,0.258-0.114,0.502-0.184,0.735
	c-0.07,0.232-0.157,0.486-0.262,0.762c-0.035,0.1-0.094,0.199-0.174,0.297c-0.081,0.097-0.184,0.184-0.306,0.259
	c-0.122,0.076-0.268,0.137-0.437,0.184c-0.17,0.048-0.358,0.071-0.568,0.071c-0.128,0-0.282-0.015-0.463-0.042
	c-0.181-0.029-0.352-0.067-0.515-0.118c-0.163-0.05-0.303-0.111-0.42-0.184c-0.116-0.072-0.174-0.155-0.174-0.25
	c0-0.057-0.002-0.129-0.008-0.217c-0.006-0.088-0.012-0.184-0.017-0.287c-0.006-0.103-0.008-0.211-0.008-0.32
	c0-0.109,0.012-0.212,0.035-0.305c0.094-0.508,0.198-0.923,0.315-1.243c0.116-0.32,0.203-0.587,0.262-0.8
	c0.106-0.383,0.201-0.793,0.288-1.229c0.087-0.436,0.166-0.888,0.236-1.356c0.071-0.467,0.128-0.948,0.174-1.441
	c0.046-0.493,0.081-0.984,0.105-1.473c0.012-0.258,0-0.55-0.035-0.88c-0.035-0.33-0.073-0.655-0.114-0.975
	c-0.041-0.32-0.078-0.613-0.114-0.88c-0.035-0.266-0.041-0.462-0.017-0.588c0.046-0.345,0.219-0.611,0.515-0.795
	c0.296-0.185,0.708-0.278,1.231-0.278c0.198,0,0.387,0.026,0.568,0.08c0.181,0.054,0.341,0.123,0.48,0.208
	c0.139,0.085,0.25,0.18,0.331,0.287c0.081,0.107,0.122,0.211,0.122,0.311c0,0.219-0.02,0.479-0.06,0.776
	c-0.041,0.299-0.087,0.606-0.139,0.923s-0.099,0.626-0.139,0.928c-0.041,0.301-0.06,0.559-0.06,0.773
	c0,0.181,0.035,0.273,0.105,0.273c0.815-0.791,1.604-1.479,2.368-2.062c0.762-0.583,1.534-1.074,2.314-1.469
	c0.582-0.289,1.159-0.541,1.729-0.758c0.571-0.217,1.124-0.387,1.66-0.513c0.268-0.062,0.527-0.118,0.778-0.165
	c0.25-0.048,0.507-0.085,0.768-0.113c0.262-0.028,0.542-0.05,0.838-0.066c0.296-0.016,0.632-0.023,1.004-0.023
	c0.443-0.006,0.862,0.055,1.258,0.184c0.395,0.129,0.739,0.302,1.031,0.523c0.291,0.219,0.518,0.474,0.681,0.762
	c0.163,0.289,0.245,0.583,0.245,0.885c0.012,0.314-0.108,0.677-0.358,1.093c-0.25,0.414-0.571,0.833-0.961,1.256
	c-0.391,0.423-0.824,0.827-1.302,1.21c-0.478,0.383-0.944,0.694-1.397,0.933c0.921-0.056,1.831-0.146,2.734-0.268
	c0.903-0.123,1.759-0.258,2.569-0.405c0.809-0.147,1.552-0.294,2.227-0.438c0.675-0.144,1.252-0.27,1.729-0.377
	c0.291-0.069,0.576-0.144,0.857-0.226s0.518-0.123,0.716-0.123C48.245,13.122,48.402,13.214,48.402,13.395z"/>
<path fill="#F15D29" d="M68.562,7.727c0,0.108-0.128,0.288-0.385,0.537c-0.466,0.433-1.045,0.899-1.738,1.4
	c-0.693,0.5-1.462,1.003-2.306,1.506c-0.845,0.503-1.741,0.989-2.69,1.455c-0.95,0.466-1.913,0.878-2.891,1.233
	s-1.945,0.641-2.9,0.857c-0.955,0.217-1.863,0.325-2.726,0.325h-0.122c-1.991,0-3.482-0.331-4.471-0.994
	c-0.989-0.662-1.485-1.586-1.485-2.769c0-0.473,0.064-0.974,0.192-1.501c0.128-0.527,0.352-1.062,0.673-1.608
	c0.32-0.544,0.757-1.089,1.31-1.633c0.552-0.543,1.254-1.069,2.104-1.576c0.64-0.372,1.316-0.657,2.026-0.856
	c0.71-0.199,1.38-0.299,2.008-0.299c0.094,0,0.215,0.014,0.367,0.041c0.151,0.027,0.306,0.062,0.463,0.106
	c0.157,0.044,0.308,0.098,0.454,0.162c0.145,0.064,0.271,0.134,0.375,0.208c0.325,0.243,0.565,0.477,0.716,0.699
	c0.151,0.223,0.227,0.484,0.227,0.781c0,0.392-0.093,0.749-0.28,1.07c-0.186,0.321-0.454,0.633-0.803,0.938
	c-0.349,0.304-0.78,0.61-1.292,0.917c-0.513,0.307-1.101,0.641-1.764,0.999c-0.222,0.122-0.484,0.257-0.787,0.405
	c-0.303,0.148-0.629,0.304-0.979,0.466c-0.349,0.163-0.71,0.332-1.083,0.507c-0.373,0.176-0.739,0.348-1.101,0.518
	c0.093,1.211,1.252,1.815,3.476,1.815c1.234,0,2.55-0.189,3.948-0.568c0.687-0.189,1.327-0.407,1.921-0.654
	c0.594-0.247,1.176-0.498,1.747-0.756c0.28-0.129,0.588-0.281,0.925-0.457c0.338-0.176,0.685-0.362,1.039-0.558
	s0.71-0.392,1.065-0.588C64.152,9.662,64.485,9.476,64.8,9.3c0.198-0.115,0.41-0.237,0.637-0.366s0.47-0.266,0.724-0.416
	l0.944-0.547c0.571-0.29,0.984-0.436,1.24-0.436C68.491,7.535,68.562,7.6,68.562,7.727z M55.11,6.207c0-0.203-0.093-0.38-0.28-0.533
	c-0.186-0.152-0.414-0.228-0.681-0.228c-0.198,0-0.451,0.048-0.76,0.141c-0.308,0.095-0.637,0.263-0.987,0.507
	c-0.71,0.5-1.316,1.104-1.817,1.811c-0.501,0.706-0.85,1.493-1.048,2.359c0.733-0.345,1.354-0.653,1.861-0.923
	c0.507-0.27,0.964-0.524,1.372-0.761c0.28-0.162,0.557-0.335,0.83-0.517c0.273-0.182,0.523-0.376,0.751-0.577
	c0.227-0.203,0.41-0.413,0.55-0.629C55.041,6.639,55.11,6.423,55.11,6.207z"/>
<path fill="#F15D29" d="M89.19,14.864c0,0.219-0.139,0.461-0.42,0.725c-0.28,0.263-0.69,0.51-1.232,0.738
	c-0.542,0.228-1.213,0.42-2.018,0.575c-0.803,0.154-1.724,0.231-2.759,0.231c-1.048,0-1.974-0.099-2.778-0.297
	c-0.803-0.198-1.482-0.507-2.035-0.928c-0.553-0.42-0.973-0.954-1.258-1.601c-0.286-0.647-0.428-1.418-0.428-2.316
	c-0.187,0.062-0.46,0.19-0.822,0.381c-0.361,0.191-0.766,0.418-1.213,0.677c-0.447,0.26-0.914,0.541-1.397,0.843
	c-0.484,0.301-0.943,0.592-1.38,0.87c-0.437,0.279-0.826,0.538-1.17,0.776c-0.344,0.239-0.596,0.423-0.76,0.556
	c-0.291,0.239-0.523,0.438-0.699,0.598c-0.174,0.16-0.338,0.289-0.489,0.386c-0.152,0.097-0.312,0.167-0.48,0.208
	c-0.17,0.041-0.387,0.061-0.656,0.061c-0.244,0-0.471-0.02-0.681-0.061c-0.209-0.041-0.391-0.095-0.542-0.16
	c-0.152-0.066-0.268-0.139-0.35-0.221s-0.122-0.163-0.122-0.245c0-0.113,0.012-0.243,0.035-0.39
	c0.023-0.147,0.056-0.299,0.096-0.452c0.041-0.154,0.084-0.305,0.131-0.457c0.046-0.15,0.087-0.286,0.122-0.405
	c0.116-0.333,0.245-0.722,0.385-1.168c0.139-0.446,0.25-0.989,0.331-1.628c0.058-0.408,0.114-0.794,0.166-1.159
	c0.052-0.365,0.078-0.743,0.078-1.139c0-0.188,0.041-0.37,0.122-0.545c0.081-0.176,0.207-0.331,0.377-0.466
	c0.169-0.135,0.378-0.243,0.629-0.325c0.25-0.082,0.55-0.123,0.9-0.123c0.257,0,0.466,0.019,0.629,0.057s0.291,0.088,0.385,0.15
	c0.093,0.062,0.155,0.134,0.184,0.212c0.029,0.078,0.043,0.158,0.043,0.24c0,0.095-0.012,0.187-0.035,0.278
	c-0.024,0.091-0.035,0.171-0.035,0.24c0,0.019-0.017,0.09-0.052,0.212c-0.035,0.123-0.085,0.278-0.149,0.466
	c-0.064,0.188-0.139,0.399-0.227,0.63c-0.087,0.232-0.178,0.465-0.271,0.697c-0.198,0.484-0.341,0.87-0.428,1.163
	c-0.087,0.292-0.151,0.543-0.193,0.753c-0.041,0.211-0.07,0.407-0.087,0.588s-0.056,0.402-0.114,0.658
	c0.256-0.188,0.617-0.422,1.083-0.701c0.465-0.279,0.948-0.568,1.451-0.866c0.501-0.298,0.981-0.586,1.441-0.866
	c0.459-0.279,0.824-0.513,1.091-0.701c0.35-0.251,0.704-0.48,1.065-0.688c0.36-0.208,0.735-0.386,1.118-0.537
	c0.385-0.15,0.792-0.268,1.223-0.353c0.43-0.085,0.89-0.127,1.38-0.127c0.338,0,0.553,0.044,0.647,0.132
	c0.093,0.088,0.139,0.194,0.139,0.32c0,0.05-0.002,0.102-0.008,0.155c-0.006,0.054-0.008,0.105-0.008,0.155
	c0,0.05-0.017,0.139-0.052,0.268c-0.035,0.129-0.07,0.266-0.106,0.414c-0.035,0.147-0.067,0.287-0.095,0.419
	c-0.029,0.132-0.044,0.223-0.044,0.273c0,0.545,0.076,1.047,0.227,1.502c0.151,0.456,0.396,0.847,0.735,1.177
	c0.337,0.33,0.786,0.585,1.345,0.768c0.559,0.181,1.246,0.273,2.061,0.273c0.523,0,0.987-0.017,1.389-0.052
	c0.402-0.034,0.787-0.093,1.153-0.174c0.366-0.081,0.739-0.185,1.118-0.31c0.378-0.126,0.807-0.283,1.284-0.471
	c0.116-0.05,0.232-0.097,0.349-0.141c0.093-0.031,0.186-0.062,0.279-0.095c0.093-0.031,0.17-0.048,0.227-0.048L89.19,14.864z"/>
<path fill="#F15D29" d="M39.534,24.797c0,0.202-0.205,0.458-0.611,0.771c-0.815,0.591-1.618,1.113-2.411,1.569
	c-0.792,0.455-1.613,0.863-2.463,1.223c-0.303,0.13-0.64,0.259-1.014,0.385c-0.373,0.127-0.78,0.252-1.223,0.377
	c-0.897,0.243-1.631,0.364-2.201,0.364c-0.758,0-1.439-0.204-2.043-0.612c-0.606-0.419-1.13-0.886-1.573-1.4
	c-0.221-0.266-0.447-0.532-0.681-0.797c-0.232-0.266-0.472-0.54-0.716-0.823c-0.466-0.555-0.867-0.833-1.205-0.833
	c-0.489,0-1.037,0.216-1.642,0.647c-0.606,0.431-1.385,1.072-2.341,1.924c-0.944,0.856-1.741,1.505-2.393,1.945
	c-0.652,0.441-1.246,0.659-1.782,0.659c-0.803,0-1.345-0.193-1.625-0.577c-0.256-0.389-0.414-1.043-0.472-1.959
	c-0.023-0.46-0.046-0.849-0.07-1.165c-0.023-0.316-0.046-0.563-0.071-0.739c-0.046-0.36-0.291-0.647-0.733-0.86
	c-0.408,0.012-1.008,0.257-1.799,0.736c-0.803,0.484-1.511,0.967-2.122,1.449c-0.611,0.481-1.197,0.962-1.755,1.44
	c-0.174,0.154-0.344,0.301-0.507,0.443c-0.163,0.141-0.331,0.287-0.507,0.435c-0.268,0.249-0.515,0.462-0.743,0.642
	c-0.227,0.18-0.428,0.333-0.602,0.457c-0.338,0.249-0.746,0.372-1.223,0.372c-0.886,0-1.467-0.23-1.747-0.692
	c-0.268-0.49-0.402-1.011-0.402-1.56c0-0.189,0.012-0.376,0.035-0.558c0.023-0.183,0.058-0.364,0.105-0.54
	c0.046-0.178,0.108-0.382,0.184-0.616s0.166-0.495,0.271-0.784c0.222-0.573,0.379-0.997,0.473-1.276
	c0.128-0.39,0.227-0.724,0.296-1.002s0.105-0.507,0.105-0.691c0-0.141,0.081-0.261,0.245-0.359c0.163-0.098,0.391-0.146,0.681-0.146
	c1.165,0,1.747,0.405,1.747,1.214c0,0.213-0.029,0.451-0.087,0.714s-0.137,0.538-0.236,0.823c-0.099,0.287-0.205,0.575-0.315,0.864
	c-0.112,0.29-0.219,0.568-0.323,0.833c-0.209,0.65-0.315,1.09-0.315,1.32c0.315-0.154,0.71-0.396,1.188-0.727
	c0.478-0.331,1.037-0.756,1.677-1.276c0.664-0.52,1.275-0.979,1.834-1.378s1.083-0.74,1.573-1.024
	c0.979-0.561,2.033-0.842,3.161-0.842c0.256,0,0.447,0.024,0.576,0.071c0.629,0.242,1.077,0.697,1.345,1.365
	c0.139,0.337,0.265,0.691,0.375,1.059s0.207,0.767,0.288,1.192c0.151,0.821,0.303,1.232,0.454,1.232c0.221,0,0.594-0.233,1.118-0.7
	c0.046-0.041,0.163-0.144,0.349-0.31c0.186-0.165,0.391-0.345,0.611-0.54s0.428-0.378,0.62-0.549
	c0.192-0.171,0.323-0.287,0.393-0.345c0.826-0.72,1.618-1.288,2.376-1.701c0.78-0.443,1.549-0.664,2.306-0.664
	c0.699,0,1.188,0.121,1.467,0.363c0.151,0.118,0.306,0.272,0.463,0.46c0.157,0.189,0.323,0.411,0.499,0.664
	c0.198,0.307,0.387,0.586,0.568,0.837c0.18,0.252,0.352,0.477,0.515,0.678c0.163,0.202,0.352,0.397,0.568,0.589
	c0.215,0.192,0.47,0.379,0.76,0.563c0.582,0.367,1.234,0.549,1.957,0.549c0.792,0,1.933-0.334,3.424-1.001
	c0.745-0.337,1.505-0.697,2.28-1.081c0.774-0.383,1.581-0.791,2.42-1.223c0.139-0.071,0.268-0.106,0.385-0.106
	C39.447,24.566,39.534,24.643,39.534,24.797z"/>
<path fill="#F15D29" d="M83.879,24.229c0,0.112-0.038,0.226-0.114,0.341c-0.076,0.116-0.17,0.231-0.28,0.345
	c-0.112,0.116-0.236,0.227-0.375,0.337c-0.139,0.109-0.273,0.214-0.402,0.314c-0.337,0.266-0.733,0.537-1.188,0.812
	c-0.454,0.275-0.94,0.542-1.459,0.802c-0.518,0.26-1.051,0.506-1.598,0.736c-0.547,0.23-1.082,0.434-1.607,0.612
	c-0.42,0.141-0.818,0.275-1.196,0.399c-0.379,0.124-0.76,0.23-1.144,0.319c-0.385,0.088-0.786,0.159-1.205,0.213
	c-0.42,0.053-0.88,0.08-1.38,0.08c-0.966,0-1.753-0.124-2.358-0.372c-0.303-0.124-0.567-0.285-0.794-0.484
	c-0.227-0.198-0.425-0.418-0.594-0.659c-0.17-0.242-0.315-0.498-0.437-0.771c-0.122-0.272-0.224-0.54-0.306-0.806
	c-0.105-0.331-0.203-0.628-0.296-0.891c-0.093-0.263-0.201-0.484-0.323-0.664c-0.122-0.179-0.271-0.319-0.445-0.417
	c-0.174-0.098-0.402-0.146-0.681-0.146c-0.221,0-0.431,0.012-0.629,0.035c-0.198,0.024-0.404,0.071-0.621,0.141
	s-0.452,0.171-0.708,0.301c-0.257,0.13-0.557,0.301-0.9,0.513c-0.344,0.213-0.737,0.473-1.179,0.779
	c-0.443,0.307-0.961,0.673-1.554,1.098c-0.291,0.207-0.635,0.434-1.031,0.683c-0.396,0.249-0.8,0.484-1.213,0.709
	c-0.414,0.225-0.818,0.422-1.213,0.594c-0.396,0.172-0.746,0.281-1.048,0.328c-1.024-0.112-1.538-0.759-1.538-1.941
	c0-0.313,0.07-0.788,0.209-1.426c0.07-0.29,0.151-0.592,0.245-0.908c0.093-0.316,0.209-0.632,0.349-0.948
	c0.139-0.316,0.3-0.623,0.48-0.922c0.18-0.299,0.393-0.575,0.637-0.828c0.116-0.118,0.238-0.212,0.366-0.279
	c0.128-0.067,0.259-0.118,0.393-0.15c0.134-0.032,0.273-0.053,0.42-0.062c0.145-0.009,0.294-0.013,0.445-0.013
	c0.186,0,0.352,0.064,0.497,0.195c0.145,0.13,0.219,0.31,0.219,0.54c0,0.141-0.023,0.275-0.07,0.399
	c-0.046,0.124-0.112,0.251-0.192,0.38c-0.081,0.13-0.17,0.27-0.263,0.42c-0.093,0.15-0.187,0.324-0.279,0.518
	c-0.07,0.159-0.149,0.337-0.236,0.532c-0.087,0.195-0.17,0.393-0.245,0.594c-0.076,0.202-0.139,0.398-0.192,0.589
	c-0.052,0.192-0.078,0.365-0.078,0.518c0,0.106,0.035,0.216,0.105,0.328c0.327-0.018,0.862-0.266,1.607-0.744
	c0.385-0.242,0.807-0.508,1.267-0.797c0.459-0.29,0.958-0.609,1.494-0.957c0.395-0.259,0.789-0.501,1.179-0.727
	c0.391-0.224,0.795-0.42,1.213-0.589c0.42-0.169,0.865-0.301,1.337-0.399c0.472-0.098,0.993-0.146,1.563-0.146
	c0.606,0,1.11,0.067,1.511,0.199c0.402,0.133,0.725,0.316,0.969,0.549c0.244,0.233,0.434,0.513,0.567,0.837
	c0.134,0.325,0.242,0.683,0.323,1.073c0.07,0.331,0.137,0.658,0.201,0.983c0.064,0.325,0.189,0.616,0.375,0.873
	c0.187,0.258,0.454,0.465,0.804,0.625c0.349,0.159,0.85,0.239,1.502,0.239c0.501,0,1.024-0.059,1.573-0.178
	c0.547-0.119,1.124-0.282,1.729-0.493c0.604-0.21,1.231-0.457,1.878-0.74c0.646-0.284,1.312-0.594,2-0.931
	c0.268-0.13,0.561-0.294,0.882-0.493c0.321-0.198,0.635-0.389,0.944-0.572c0.308-0.183,0.596-0.339,0.865-0.469
	s0.484-0.195,0.647-0.195c0.07,0,0.182,0.018,0.341,0.053C83.801,24.088,83.879,24.147,83.879,24.229z"/>
<path fill="#F15D29" d="M108.483,24.929c0,0.147-0.07,0.293-0.209,0.434c-0.257,0.26-0.845,0.658-1.764,1.197
	c-0.443,0.266-0.914,0.527-1.415,0.784c-0.501,0.257-1.031,0.518-1.59,0.784c-0.559,0.266-1.1,0.506-1.624,0.718
	c-0.523,0.213-1.037,0.405-1.538,0.577c-0.989,0.342-1.782,0.513-2.376,0.513c-0.232,0-0.53-0.041-0.89-0.124
	c-0.733-0.171-1.316-0.484-1.747-0.939c-0.42-0.455-0.716-0.931-0.89-1.426c-0.174-0.497-0.321-1.052-0.436-1.666
	c-1.456,1.376-3.343,2.6-5.66,3.669c-2.329,1.075-4.74,1.612-7.232,1.612c-0.687,0-1.211-0.186-1.573-0.559
	c-0.361-0.367-0.542-0.747-0.542-1.143c0-0.532,0.087-0.928,0.263-1.188c0.489-0.756,1.051-1.464,1.685-2.127
	c0.635-0.661,1.406-1.311,2.314-1.95c0.594-0.414,1.269-0.827,2.026-1.241c0.768-0.414,1.49-0.709,2.167-0.887
	c0.838-0.23,2.043-0.345,3.616-0.345c0.547,0,1.014,0.154,1.397,0.46c0.385,0.307,0.675,0.664,0.873,1.072
	c0.198,0.431,0.296,0.769,0.296,1.011c0.174-0.29,0.332-0.583,0.472-0.882c0.139-0.299,0.263-0.607,0.366-0.926
	c0.106-0.319,0.201-0.655,0.288-1.006c0.087-0.351,0.165-0.728,0.236-1.13c0.023-0.106,0.046-0.242,0.071-0.408
	c0.023-0.165,0.052-0.36,0.087-0.584c0.07-0.46,0.139-0.85,0.21-1.165c0.07-0.316,0.163-0.521,0.279-0.616
	c0.279-0.242,0.768-0.364,1.467-0.364c0.349,0,0.693,0.039,1.031,0.116c0.36,0.071,0.542,0.171,0.542,0.301
	c0,0.071-0.027,0.186-0.078,0.345c-0.052,0.16-0.126,0.367-0.219,0.62c-0.093,0.255-0.219,0.569-0.375,0.943
	c-0.157,0.376-0.329,0.822-0.515,1.342c-0.012,0.059-0.046,0.178-0.106,0.354c-0.058,0.178-0.122,0.366-0.193,0.563
	c-0.07,0.198-0.134,0.381-0.192,0.549c-0.058,0.169-0.094,0.273-0.106,0.315c-0.151,0.478-0.273,0.928-0.366,1.347
	c-0.094,0.419-0.139,0.846-0.139,1.276c0,0.342,0.017,0.747,0.052,1.214c0.035,0.472,0.122,0.931,0.263,1.374
	c0.139,0.443,0.344,0.664,0.611,0.664c0.954,0,2.107-0.221,3.459-0.664c1.339-0.45,2.633-0.963,3.879-1.542
	c1.246-0.579,2.352-1.131,3.32-1.657c0.07-0.035,0.134-0.053,0.192-0.053c0.128,0,0.213,0.049,0.253,0.146
	C108.462,24.739,108.483,24.836,108.483,24.929z M92.203,25.488c-0.303-0.035-0.533-0.112-0.69-0.23
	c-0.157-0.118-0.236-0.252-0.236-0.399c0-0.118,0.035-0.293,0.106-0.524c0.07-0.23,0.106-0.407,0.106-0.532
	c0-0.106-0.056-0.226-0.166-0.358c-0.112-0.133-0.253-0.258-0.428-0.372c-0.174-0.116-0.37-0.213-0.585-0.293
	c-0.215-0.079-0.428-0.12-0.637-0.12c-0.617,0-1.456,0.328-2.515,0.984c-0.536,0.337-1.027,0.658-1.476,0.966
	c-0.447,0.307-0.859,0.612-1.232,0.912c-0.408,0.325-0.754,0.623-1.039,0.896c-0.286,0.272-0.527,0.514-0.725,0.727
	c-0.687,0.75-1.031,1.341-1.031,1.772c0,0.549,0.366,0.823,1.101,0.823c0.652,0,1.548-0.192,2.69-0.576
	c1.176-0.407,2.084-0.774,2.724-1.098c0.665-0.354,1.217-0.653,1.66-0.896c0.443-0.243,0.792-0.437,1.048-0.585
	c0.256-0.147,0.492-0.313,0.708-0.497C91.797,25.908,92.004,25.706,92.203,25.488z"/>
<path fill="#F15D29" d="M116.134,29.121c0,0.301-0.105,0.595-0.315,0.882c-0.209,0.287-0.492,0.557-0.847,0.812
	c-0.356,0.254-0.762,0.489-1.223,0.704c-0.46,0.216-0.938,0.402-1.433,0.559c-0.495,0.156-0.993,0.278-1.494,0.363
	c-0.501,0.086-0.961,0.129-1.38,0.129c-0.582,0-0.966-0.064-1.153-0.194c-0.187-0.13-0.279-0.313-0.279-0.55
	c0-0.218,0.081-0.385,0.245-0.5c0.163-0.115,0.395-0.214,0.699-0.297c0.035-0.006,0.099-0.013,0.192-0.022
	c0.093-0.009,0.195-0.015,0.306-0.018c0.11-0.003,0.221-0.006,0.332-0.009c0.11-0.003,0.201-0.004,0.271-0.004
	c0.081,0,0.198-0.009,0.35-0.026c0.151-0.018,0.314-0.043,0.489-0.076c0.174-0.032,0.356-0.073,0.542-0.124
	c0.186-0.05,0.36-0.108,0.523-0.173c0.466-0.189,0.795-0.401,0.987-0.633c0.193-0.233,0.288-0.442,0.288-0.625
	c0-0.23-0.145-0.446-0.436-0.647s-0.658-0.397-1.1-0.589c-0.443-0.192-0.921-0.383-1.433-0.576
	c-0.513-0.192-0.989-0.395-1.432-0.612c-0.443-0.216-0.81-0.445-1.1-0.687c-0.292-0.242-0.437-0.511-0.437-0.807
	c0-0.147,0.038-0.303,0.114-0.469c0.076-0.165,0.174-0.328,0.296-0.487c0.122-0.16,0.263-0.315,0.42-0.465
	c0.157-0.15,0.323-0.288,0.497-0.413c0.279-0.201,0.585-0.399,0.917-0.594c0.332-0.194,0.667-0.367,1.004-0.518
	c0.337-0.15,0.669-0.272,0.996-0.363c0.325-0.092,0.629-0.138,0.908-0.138c0.792,0,1.188,0.236,1.188,0.709
	c0,0.165-0.131,0.358-0.393,0.576c-0.262,0.219-0.574,0.419-0.934,0.603c-0.559,0.272-1.048,0.503-1.467,0.697
	c-0.42,0.192-0.81,0.389-1.17,0.589c0.268,0.202,0.559,0.383,0.874,0.549c0.315,0.166,0.643,0.325,0.987,0.479
	c0.344,0.153,0.693,0.304,1.048,0.452c0.356,0.147,0.708,0.301,1.057,0.46c0.325,0.153,0.637,0.308,0.934,0.465
	c0.296,0.156,0.561,0.319,0.794,0.488c0.232,0.169,0.42,0.343,0.559,0.527C116.066,28.73,116.134,28.92,116.134,29.121z"/>
<path fill="#F15D29" d="M50.003,14.123c0.11,0.149-0.017,0.413-0.107,0.471c-0.127,0.111-0.245,0.076-0.325-0.068
	c-0.185-0.065-0.186-0.241,0.041-0.428C49.616,14.106,49.868,14.055,50.003,14.123z"/>
<path fill="#F15D29" d="M54.11,27.825c0,0.075-0.078,0.173-0.234,0.294c-0.156,0.12-0.379,0.254-0.671,0.398
	c-0.292,0.145-0.644,0.298-1.057,0.455c-0.414,0.158-0.878,0.307-1.391,0.448c-0.285,0.08-0.653,0.176-1.108,0.286
	c-0.454,0.11-0.975,0.214-1.564,0.312c-0.589,0.098-1.237,0.179-1.94,0.249c-0.704,0.067-1.462,0.101-2.275,0.101
	c-0.948,0-1.768-0.07-2.458-0.211c-0.69-0.14-1.259-0.325-1.706-0.553c-0.447-0.227-0.779-0.486-0.996-0.775
	c-0.217-0.288-0.324-0.579-0.324-0.876c0-0.36,0.071-0.738,0.213-1.135c0.142-0.395,0.301-0.768,0.478-1.116
	c0.177-0.348,0.338-0.65,0.487-0.905c0.149-0.256,0.224-0.423,0.224-0.503c0-0.095,0.023-0.203,0.071-0.323s0.131-0.233,0.253-0.338
	c0.122-0.105,0.288-0.193,0.497-0.263c0.21-0.07,0.471-0.105,0.782-0.105c0.379,0,0.701,0.019,0.965,0.056
	c0.264,0.038,0.48,0.084,0.65,0.139c0.17,0.056,0.295,0.113,0.377,0.173c0.08,0.061,0.121,0.115,0.121,0.166
	c0,0.15-0.106,0.347-0.315,0.589c-0.21,0.242-0.441,0.521-0.69,0.831c-0.25,0.31-0.481,0.65-0.69,1.018
	c-0.21,0.369-0.315,0.756-0.315,1.162c0,0.2,0.03,0.413,0.091,0.635s0.189,0.427,0.386,0.613c0.196,0.185,0.484,0.339,0.864,0.462
	c0.379,0.123,0.894,0.184,1.544,0.184c0.542,0,1.1-0.031,1.676-0.095c0.575-0.062,1.134-0.143,1.676-0.241
	c0.542-0.099,1.05-0.205,1.524-0.32c0.474-0.116,0.887-0.223,1.239-0.323c0.352-0.105,0.673-0.204,0.965-0.297
	c0.292-0.093,0.559-0.174,0.802-0.245c0.244-0.069,0.46-0.126,0.65-0.169c0.189-0.043,0.359-0.064,0.508-0.064
	c0.311,0,0.504,0.03,0.579,0.091C54.072,27.689,54.11,27.754,54.11,27.825z M46.631,18.503c0.017,0.073,0.008,0.188-0.026,0.344
	c-0.033,0.157-0.086,0.331-0.155,0.519c-0.07,0.19-0.152,0.381-0.248,0.574c-0.095,0.193-0.188,0.359-0.278,0.499
	c-0.091,0.141-0.256,0.293-0.499,0.455c-0.242,0.163-0.513,0.319-0.81,0.469c-0.298,0.15-0.599,0.287-0.903,0.407
	c-0.305,0.122-0.556,0.209-0.753,0.261c-0.148,0.04-0.268,0.054-0.359,0.039s-0.164-0.045-0.219-0.093
	c-0.055-0.048-0.099-0.105-0.131-0.174c-0.034-0.069-0.066-0.134-0.098-0.194l-0.202-0.306c-0.048-0.056-0.107-0.101-0.174-0.133
	c-0.069-0.031-0.143-0.067-0.222-0.108c-0.079-0.041-0.153-0.097-0.222-0.167c-0.07-0.07-0.12-0.175-0.152-0.313
	c-0.027-0.116,0.029-0.269,0.17-0.459c0.139-0.189,0.344-0.383,0.613-0.584c0.268-0.201,0.594-0.397,0.979-0.591
	c0.384-0.193,0.815-0.354,1.292-0.483c0.115-0.031,0.305-0.061,0.57-0.091c0.265-0.028,0.528-0.045,0.789-0.05
	c0.262-0.005,0.495,0.006,0.703,0.031C46.502,18.38,46.614,18.43,46.631,18.503z"/>
<path fill="#984722" d="M23.165,37.111c0.422-1.564,4.456,0.973,5.684,0.084c1.101-0.797,2.363-3.281,0.357-5.978
	c-1.519-2.042-7.269-2.534-9.336,0c-2.913,3.57-1.798,8.594,0,9.988c4.096,3.176,15.092,4.991,15.092,4.991
	S22.113,41.014,23.165,37.111z M26.439,30.898c3.048,0,3.048,5.444,0,5.444S23.391,30.898,26.439,30.898z"/>
<path fill="#F69521" d="M38.901,39.977H33.07v1.448c0,0.302,0.048,0.498,0.145,0.584c0.096,0.087,0.282,0.131,0.558,0.131
	c0.342,0,0.571-0.059,0.686-0.175s0.173-0.34,0.173-0.673v-0.883h4.27v0.494c0,0.414-0.058,0.732-0.172,0.953
	c-0.115,0.221-0.385,0.459-0.809,0.71c-0.424,0.252-0.961,0.441-1.612,0.568c-0.651,0.126-1.467,0.189-2.448,0.189
	c-0.952,0-1.791-0.062-2.52-0.186c-0.729-0.124-1.295-0.295-1.7-0.512c-0.406-0.217-0.686-0.456-0.841-0.716
	s-0.234-0.639-0.234-1.136v-1.951c0-0.584,0.174-1.046,0.524-1.383c0.349-0.338,0.922-0.597,1.717-0.776
	c0.795-0.18,1.71-0.269,2.743-0.269c1.263,0,2.306,0.108,3.128,0.325c0.822,0.217,1.397,0.504,1.728,0.862
	c0.331,0.358,0.495,0.861,0.495,1.51v0.89l0,0V39.977z M34.386,38.889v-0.49c0-0.345-0.041-0.57-0.123-0.67
	c-0.081-0.1-0.25-0.152-0.502-0.152c-0.311,0-0.506,0.043-0.58,0.128c-0.074,0.087-0.112,0.317-0.112,0.693v0.49h1.316
	C34.386,38.888,34.386,38.889,34.386,38.889z"/>
<path fill="#F69521" d="M47.726,38.706h-3.278v-0.35c0-0.299-0.031-0.488-0.096-0.568c-0.064-0.079-0.224-0.119-0.48-0.119
	c-0.207,0-0.364,0.036-0.467,0.11c-0.103,0.073-0.156,0.183-0.156,0.329c0,0.198,0.026,0.343,0.078,0.436
	c0.051,0.093,0.207,0.194,0.467,0.305c0.259,0.111,0.792,0.271,1.598,0.483c1.074,0.279,1.779,0.542,2.115,0.789
	c0.336,0.248,0.503,0.606,0.503,1.078c0,0.526-0.128,0.924-0.385,1.191c-0.257,0.268-0.686,0.475-1.287,0.619
	s-1.326,0.218-2.175,0.218c-0.94,0-1.745-0.078-2.413-0.235c-0.668-0.156-1.127-0.367-1.378-0.633
	c-0.25-0.266-0.375-0.67-0.375-1.208V40.84h3.278v0.41c0,0.348,0.041,0.574,0.123,0.677c0.083,0.104,0.245,0.156,0.49,0.156
	c0.263,0,0.446-0.034,0.549-0.104c0.103-0.069,0.156-0.217,0.156-0.441c0-0.308-0.067-0.501-0.201-0.579
	c-0.141-0.078-0.858-0.308-2.151-0.693c-1.087-0.325-1.749-0.619-1.986-0.884c-0.237-0.267-0.356-0.583-0.356-0.946
	c0-0.517,0.128-0.897,0.385-1.143s0.692-0.434,1.305-0.568s1.326-0.2,2.139-0.2c0.805,0,1.491,0.055,2.056,0.163
	c0.565,0.109,0.997,0.253,1.301,0.432c0.302,0.179,0.486,0.344,0.549,0.498c0.064,0.152,0.096,0.392,0.096,0.717v0.373
	L47.726,38.706L47.726,38.706z"/>
<path fill="#F69521" d="M52.688,35.626v-2.023h-3.295v2.023h-1.098v2.697h1.098v6.01l3.295,0.032v-6.042h1.098v-2.697H52.688z"/>
<path fill="#F69521" d="M63.182,36.639v6.468h-3.763l0.064-0.537c-0.257,0.218-0.572,0.381-0.948,0.49
	c-0.375,0.109-0.807,0.164-1.295,0.164c-0.556,0-1.017-0.053-1.383-0.156c-0.366-0.104-0.637-0.242-0.81-0.415
	c-0.174-0.173-0.282-0.351-0.325-0.537c-0.043-0.186-0.064-0.558-0.064-1.114v-4.362h3.7v4.401c0,0.503,0.029,0.803,0.087,0.896
	c0.058,0.095,0.215,0.141,0.472,0.141c0.274,0,0.437-0.049,0.49-0.146c0.051-0.097,0.078-0.411,0.078-0.94v-4.352L63.182,36.639
	L63.182,36.639L63.182,36.639z"/>
<path fill="#F69521" d="M67.815,39.144h-3.471v-0.433c0-0.5,0.108-0.886,0.325-1.157c0.217-0.271,0.652-0.511,1.305-0.719
	c0.653-0.208,1.502-0.312,2.545-0.312c1.252,0,2.196,0.118,2.83,0.353c0.635,0.235,1.017,0.525,1.145,0.868
	c0.128,0.342,0.192,1.05,0.192,2.118v3.246h-3.598v-0.577c-0.225,0.231-0.517,0.405-0.874,0.521
	c-0.357,0.115-0.783,0.173-1.277,0.173c-0.647,0-1.241-0.097-1.781-0.291c-0.54-0.193-0.81-0.617-0.81-1.269v-0.532
	c0-0.484,0.143-0.814,0.43-0.989c0.287-0.176,0.997-0.38,2.134-0.615c1.215-0.254,1.864-0.424,1.95-0.512
	c0.086-0.088,0.128-0.266,0.128-0.537c0-0.338-0.048-0.558-0.142-0.659c-0.095-0.102-0.252-0.153-0.472-0.153
	c-0.25,0-0.406,0.043-0.467,0.129c-0.06,0.087-0.092,0.309-0.092,0.67L67.815,39.144L67.815,39.144z M68.987,40.032
	c-0.592,0.231-0.936,0.424-1.03,0.579c-0.094,0.156-0.142,0.38-0.142,0.673c0,0.336,0.041,0.551,0.123,0.648
	c0.083,0.097,0.245,0.146,0.49,0.146c0.231,0,0.382-0.039,0.453-0.114c0.071-0.076,0.105-0.278,0.105-0.602
	C68.987,41.363,68.987,40.032,68.987,40.032z"/>
<path fill="#F69521" d="M77.659,36.639l-0.146,0.851c0.538-0.609,1.316-0.931,2.335-0.968v2.276c-0.678,0-1.175,0.049-1.492,0.146
	c-0.317,0.097-0.513,0.234-0.586,0.407c-0.073,0.175-0.109,0.575-0.109,1.202v2.554h-3.7v-6.468H77.659z"/>
<path fill="#F69521" d="M83.976,39.144h-3.469v-0.433c0-0.5,0.108-0.886,0.325-1.157c0.217-0.271,0.652-0.511,1.305-0.719
	c0.653-0.208,1.502-0.312,2.545-0.312c1.251,0,2.194,0.118,2.829,0.353c0.635,0.235,1.017,0.525,1.145,0.868
	c0.128,0.342,0.193,1.05,0.193,2.118v3.246h-3.598v-0.577c-0.227,0.231-0.517,0.405-0.875,0.521
	c-0.357,0.115-0.783,0.173-1.277,0.173c-0.647,0-1.24-0.097-1.781-0.291c-0.539-0.193-0.81-0.617-0.81-1.269v-0.532
	c0-0.484,0.143-0.814,0.43-0.989c0.286-0.176,0.997-0.38,2.134-0.615c1.215-0.254,1.864-0.424,1.95-0.512
	c0.085-0.088,0.128-0.266,0.128-0.537c0-0.338-0.048-0.558-0.142-0.659c-0.094-0.101-0.251-0.153-0.471-0.153
	c-0.25,0-0.406,0.043-0.467,0.129c-0.06,0.087-0.092,0.309-0.092,0.67L83.976,39.144L83.976,39.144z M85.149,40.032
	c-0.592,0.231-0.936,0.424-1.03,0.579c-0.095,0.156-0.142,0.38-0.142,0.673c0,0.336,0.041,0.551,0.124,0.648
	c0.081,0.097,0.245,0.146,0.49,0.146c0.232,0,0.382-0.039,0.453-0.114c0.071-0.076,0.106-0.278,0.106-0.602L85.149,40.032
	L85.149,40.032z"/>
<path fill="#F69521" d="M93.884,36.639l-0.064,0.596c0.268-0.237,0.596-0.416,0.984-0.535c0.387-0.119,0.835-0.179,1.341-0.179
	c0.635,0,1.154,0.08,1.556,0.24c0.402,0.159,0.663,0.359,0.779,0.602c0.116,0.241,0.174,0.645,0.174,1.211v4.532h-3.7v-4.479
	c0-0.445-0.028-0.717-0.083-0.814c-0.055-0.097-0.207-0.146-0.458-0.146c-0.263,0-0.428,0.056-0.494,0.168
	c-0.067,0.112-0.101,0.413-0.101,0.899v4.371h-3.7v-6.468H93.884L93.884,36.639z"/>
<path fill="#F69521" d="M102.913,40.154c-3.048,0-3.048-5.444,0-5.444c0.314,0,0.594,0.06,0.843,0.165v-1.271h-3.844v2.023h-0.549
	v2.697h0.549v6.029l3.844-0.073V39.99C103.507,40.093,103.228,40.154,102.913,40.154z"/>
<polyline fill="#F15D29" points="108.721,31.712 104.493,35.003 109.669,33.334 "/>
<path fill="#F15D29" d="M110.653,32.491c0.36-0.355,0.009-0.618-1.784-0.631c-0.23-0.002-0.444-0.605-0.666-0.671
	c-0.955-0.283-2.984,2.07-4.288,3.756c0.35,0.183,0.628,0.462,0.835,0.798C107.635,34.544,112.379,32.473,110.653,32.491z"/>
</svg>
