<?xml version="1.0" encoding="utf-8"?>
<!-- Generator: Adobe Illustrator 17.0.0, SVG Export Plug-In . SVG Version: 6.00 Build 0)  -->
<!DOCTYPE svg PUBLIC "-//W3C//DTD SVG 1.1//EN" "http://www.w3.org/Graphics/SVG/1.1/DTD/svg11.dtd">
<svg version="1.1" id="Layer_1" xmlns="http://www.w3.org/2000/svg" xmlns:xlink="http://www.w3.org/1999/xlink" x="0px" y="0px"
	 width="50px" height="50px" viewBox="0 0 50 50" enable-background="new 0 0 50 50" xml:space="preserve">
<polygon fill="#FFFFFF" points="42.315,3.059 7.001,3.059 7.001,4.876 8.625,4.876 8.625,7.738 40.69,7.738 40.69,4.876 
	42.315,4.876 "/>
<g>
	<path fill="#FFFFFF" d="M16.965,14.833c0,1.356-0.753,2.454-1.682,2.454c-0.928,0-1.68-1.098-1.68-2.454
		c0-1.354,0.752-2.453,1.68-2.453C16.212,12.38,16.965,13.479,16.965,14.833z"/>
	<path fill="#FFFFFF" d="M21.6,14.833c0,1.356-0.752,2.454-1.682,2.454c-0.928,0-1.68-1.098-1.68-2.454
		c0-1.354,0.752-2.453,1.68-2.453C20.848,12.38,21.6,13.479,21.6,14.833z"/>
	<path fill="#FFFFFF" d="M26.234,14.833c0,1.356-0.752,2.454-1.681,2.454c-0.928,0-1.68-1.098-1.68-2.454
		c0-1.354,0.752-2.453,1.68-2.453C25.483,12.38,26.234,13.479,26.234,14.833z"/>
	<path fill="#FFFFFF" d="M30.87,14.833c0,1.356-0.752,2.454-1.681,2.454c-0.928,0-1.68-1.098-1.68-2.454
		c0-1.354,0.752-2.453,1.68-2.453C30.118,12.38,30.87,13.479,30.87,14.833z"/>
	<path fill="#FFFFFF" d="M35.504,14.833c0,1.356-0.751,2.454-1.681,2.454c-0.928,0-1.68-1.098-1.68-2.454
		c0-1.354,0.752-2.453,1.68-2.453C34.753,12.38,35.504,13.479,35.504,14.833z"/>
</g>
<path fill="#F79421" d="M50,6.303C50,2.823,47.755,0,44.984,0H5.155C2.386,0,0.141,2.823,0.141,6.303v37.488
	c0,3.481,2.245,6.303,5.014,6.303h39.83c2.77,0,5.016-2.822,5.016-6.303V6.303z"/>
<g>
	<g>
		<path fill="#FFFFFF" d="M49.608,13.935c-0.711-5.186-4.285-8.536-9.102-8.536H10.19c-4.818,0-8.391,3.351-9.102,8.539
			c-0.645,4.716,1.709,9.252,5.248,10.114c1.415,0.343,2.846-0.068,4.028-1.156c1.183-1.091,1.977-2.729,2.234-4.613
			c0.214-1.565-0.04-3.151-0.721-4.457c-0.68-1.31-1.701-2.189-2.876-2.475c-0.983-0.238-1.978,0.047-2.798,0.804
			c-0.822,0.759-1.373,1.896-1.553,3.206c-0.151,1.105,0.029,2.221,0.508,3.145c0.479,0.925,1.201,1.547,2.029,1.748
			c1.46,0.354,2.863-0.938,3.128-2.882c0.229-1.676-0.606-3.285-1.862-3.59c-0.577-0.141-1.137,0.077-1.571,0.517
			c0.086-0.114,0.15-0.252,0.252-0.347c0.462-0.424,1.019-0.585,1.572-0.45c0.744,0.18,1.391,0.736,1.82,1.566
			c0.43,0.828,0.593,1.83,0.457,2.822c-0.18,1.311-0.731,2.449-1.554,3.208c-0.823,0.757-1.817,1.044-2.802,0.804
			c-2.649-0.643-4.411-4.04-3.928-7.572c0.682-4.978,4.461-6.745,7.489-6.745h30.316c3.028,0,6.805,1.767,7.487,6.745
			c0.236,1.71-0.044,3.441-0.787,4.871c-0.742,1.43-1.858,2.389-3.141,2.701c-0.984,0.24-1.977-0.049-2.801-0.804
			c-0.824-0.759-1.375-1.897-1.554-3.207c-0.136-0.992,0.025-1.994,0.455-2.822c0.432-0.83,1.078-1.386,1.821-1.566
			c0.73-0.178,1.421,0.199,1.892,0.877c-0.039-0.059-0.08-0.117-0.131-0.163c-0.444-0.409-0.979-0.561-1.51-0.433
			c-0.609,0.148-1.137,0.603-1.489,1.281c-0.351,0.676-0.484,1.498-0.373,2.31c0.267,1.943,1.67,3.235,3.13,2.88
			c1.711-0.417,2.849-2.613,2.538-4.894c-0.371-2.703-2.323-4.5-4.352-4.009c-1.174,0.285-2.197,1.165-2.875,2.475
			c-0.68,1.31-0.936,2.892-0.722,4.458c0.259,1.883,1.051,3.521,2.234,4.612c1.185,1.089,2.616,1.5,4.03,1.156
			c1.714-0.418,3.205-1.699,4.196-3.61C49.547,18.53,49.92,16.22,49.608,13.935z M7.602,15.114c0.691,0,1.251,0.746,1.251,1.667
			c0,0.922-0.56,1.669-1.251,1.669c-0.691,0-1.251-0.747-1.251-1.669C6.351,15.86,6.911,15.114,7.602,15.114z M43.007,18.45
			c-0.69,0-1.251-0.747-1.251-1.669c0-0.921,0.561-1.667,1.251-1.667c0.69,0,1.254,0.746,1.254,1.667
			C44.261,17.703,43.697,18.45,43.007,18.45z"/>
	</g>
</g>
<g>
	<rect x="14.239" y="18.173" fill="#FFFFFF" width="22.271" height="2.632"/>
	<polygon fill="#FFFFFF" points="40.393,23.771 10.628,23.771 12.271,21.548 38.614,21.548 	"/>
</g>
<g>
	<path fill="#FFFFFF" d="M23.519,26.799c0-1.054-0.868-1.909-1.939-1.909c-1.07,0-1.939,0.856-1.939,1.909v20.533h3.878V26.799z"/>
	<path fill="#FFFFFF" d="M16.731,26.799c0-1.054-0.622-1.909-1.386-1.909c-0.765,0-1.385,0.856-1.385,1.909v20.533h2.771V26.799z"/>
	<path fill="#FFFFFF" d="M11.699,26.799c0-1.054-0.455-1.909-1.018-1.909c-0.56,0-1.015,0.856-1.015,1.909v20.533h2.032V26.799z"/>
	<path fill="#FFFFFF" d="M36.623,26.799c0-1.054-0.621-1.909-1.385-1.909s-1.385,0.856-1.385,1.909v20.533h2.771V26.799z"/>
	<path fill="#FFFFFF" d="M40.917,26.799c0-1.054-0.455-1.909-1.015-1.909s-1.017,0.856-1.017,1.909v20.533h2.032V26.799z"/>
	<path fill="#FFFFFF" d="M30.943,26.799c0-1.054-0.87-1.909-1.941-1.909c-1.072,0-1.939,0.856-1.939,1.909v20.533h3.88V26.799z"/>
</g>
</svg>
